<?xml version="1.0" encoding="utf-8"?>
<!-- Generator: Adobe Illustrator 15.0.0, SVG Export Plug-In . SVG Version: 6.00 Build 0)  -->
<!DOCTYPE svg PUBLIC "-//W3C//DTD SVG 1.1//EN" "http://www.w3.org/Graphics/SVG/1.1/DTD/svg11.dtd">
<svg version="1.1" id="Layer_1" xmlns="http://www.w3.org/2000/svg" xmlns:xlink="http://www.w3.org/1999/xlink" x="0px" y="0px"
	 width="121.667px" height="39.167px" viewBox="0 0 121.667 39.167" enable-background="new 0 0 121.667 39.167"
	 xml:space="preserve">
<g>
	<path fill="#9CB0BA" d="M1.263,7.1V3.309c0-1.249,0.98-2.229,2.229-2.229h4.95c1.249,0,2.23,0.981,2.23,2.229V7.1
		c0,1.249-0.981,2.23-2.23,2.23h-4.95C2.244,9.33,1.263,8.349,1.263,7.1L1.263,7.1z M1.263,16.69v-3.792
		c0-1.249,0.98-2.229,2.229-2.229h4.95c1.249,0,2.23,0.98,2.23,2.229v3.792c0,1.248-0.981,2.229-2.23,2.229h-4.95
		C2.244,18.92,1.263,17.938,1.263,16.69L1.263,16.69z M12.012,7.1V3.309c0-1.249,0.981-2.229,2.23-2.229h4.95
		c1.249,0,2.229,0.981,2.229,2.229V7.1c0,1.249-0.98,2.23-2.229,2.23h-4.95C12.993,9.33,12.012,8.349,12.012,7.1L12.012,7.1z
		 M12.012,16.69v-3.792c0-1.249,0.981-2.229,2.23-2.229h4.95c1.249,0,2.229,0.98,2.229,2.229v3.792c0,1.248-0.98,2.229-2.229,2.229
		h-4.95C12.993,18.92,12.012,17.938,12.012,16.69z"/>
</g>
<path fill="#9CB0BA" d="M61.885,18.938V3.353c0-1.263,0.784-2.22,1.742-2.22h1.48c1,0,1.784,0.958,1.784,2.22v15.584H61.885z
	 M68.154,18.938v-4.92c0-1.262,0.783-2.22,1.785-2.22h1.436c0.959,0,1.74,0.958,1.74,2.22v4.92H68.154z M74.379,18.938V8.664
	c0-1.219,0.783-2.22,1.785-2.22h1.479c0.959,0,1.742,1,1.742,2.22v10.274H74.379z"/>
<path fill="#9CB0BA" d="M22.869,16.736V3.338c0-1.247,0.979-2.226,2.226-2.226h13.398c1.246,0,2.225,0.979,2.225,2.226v13.398
	c0,1.247-0.979,2.226-2.225,2.226H25.095C23.849,18.962,22.869,17.983,22.869,16.736z"/>
<path fill="#9CB0BA" d="M80.637,11.59V3.32c0-1.245,0.977-2.223,2.223-2.223H96.24c1.244,0,2.223,0.979,2.223,2.223v8.27
	c0,1.245-0.979,2.223-2.223,2.223h-0.979v3.867c0,1.778-0.711,1.379-1.645-0.488c0,0-0.889-1.778-1.645-3.379h-9.113
	C81.613,13.812,80.637,12.835,80.637,11.59z"/>
<path fill="#9CB0BA" d="M107.742,18.91h-4.895c-1.254,0-3.074-0.779-3.074-2.642V3.839c0-0.996,0.953-2.641,3.074-2.641h4.895
	c1.256,0,2.209,0.778,2.209,1.731v0.606c0,0.996-0.953,1.775-2.209,1.775h-2.512c0,0-1.473-0.086-1.473,1.43v6.625
	c0,1.517,1.473,1.43,1.473,1.43h2.512c1.256,0,2.209,0.779,2.209,1.732v0.606C109.951,18.131,108.998,18.91,107.742,18.91
	L107.742,18.91z M115.971,14.969c-0.867,0.909-2.08,1.039-2.814,0.304l-0.348-0.347c-0.953-0.953,0.217-2.078,1.039-2.945
	l-4.979,0.13c-1.258,0.043-2.383-0.779-2.383-1.731V9.772c0-0.996,1.125-1.818,2.383-1.775l4.979,0.172
	c-0.865-0.865-1.818-2.164-1.125-2.943l0.434-0.477c0.691-0.736,1.947-0.563,2.814,0.346l3.334,3.291
	c0.391,0.477,0.736,1.04,0.736,1.646c0,0.648-0.346,1.256-0.736,1.646L115.971,14.969z"/>
<path fill="#9CB0BA" d="M42.322,16.745V3.331c0-1.248,0.98-2.229,2.228-2.229h13.415c1.248,0,2.229,0.981,2.229,2.229v13.415
	c0,1.247-0.98,2.228-2.229,2.228H44.55C43.302,18.973,42.322,17.992,42.322,16.745L42.322,16.745z M49.943,10.684
	c0,0.489,0.134,0.98,0.444,1.292l0.134,0.135l3.79,3.787c0.578,0.58,1.381,0.892,2.094,0.178c0.713-0.712,0.445-1.515-0.178-2.095
	l-3.566-3.565V5.157c0-0.846-0.355-1.604-1.381-1.604c-0.98,0-1.336,0.758-1.336,1.604V10.684z"/>
<g>
	<path fill="#FFFFFF" d="M1.263,26.206v-3.791c0-1.248,0.98-2.229,2.229-2.229h4.95c1.249,0,2.23,0.98,2.23,2.229v3.791
		c0,1.25-0.981,2.23-2.23,2.23h-4.95C2.244,28.437,1.263,27.456,1.263,26.206L1.263,26.206z M1.263,35.797v-3.792
		c0-1.249,0.98-2.229,2.229-2.229h4.95c1.249,0,2.23,0.98,2.23,2.229v3.792c0,1.248-0.981,2.229-2.23,2.229h-4.95
		C2.244,38.026,1.263,37.045,1.263,35.797L1.263,35.797z M12.012,26.206v-3.791c0-1.248,0.981-2.229,2.23-2.229h4.95
		c1.249,0,2.229,0.98,2.229,2.229v3.791c0,1.25-0.98,2.23-2.229,2.23h-4.95C12.993,28.437,12.012,27.456,12.012,26.206
		L12.012,26.206z M12.012,35.797v-3.792c0-1.249,0.981-2.229,2.23-2.229h4.95c1.249,0,2.229,0.98,2.229,2.229v3.792
		c0,1.248-0.98,2.229-2.229,2.229h-4.95C12.993,38.026,12.012,37.045,12.012,35.797z"/>
</g>
<path fill="#FFFFFF" d="M61.885,38.007V22.423c0-1.264,0.785-2.221,1.742-2.221h1.48c1,0,1.785,0.957,1.785,2.221v15.584H61.885z
	 M68.154,38.007v-4.92c0-1.262,0.783-2.22,1.785-2.22h1.436c0.959,0,1.74,0.958,1.74,2.22v4.92H68.154z M74.379,38.007V27.733
	c0-1.22,0.783-2.221,1.785-2.221h1.479c0.959,0,1.742,1.001,1.742,2.221v10.273H74.379z"/>
<path fill="#FFFFFF" d="M22.869,35.806V22.407c0-1.246,0.979-2.227,2.226-2.227h13.398c1.246,0,2.225,0.98,2.225,2.227v13.398
	c0,1.247-0.979,2.226-2.225,2.226H25.095C23.849,38.031,22.869,37.053,22.869,35.806z"/>
<path fill="#FFFFFF" d="M80.637,30.659v-8.27c0-1.244,0.977-2.223,2.223-2.223H96.24c1.244,0,2.223,0.979,2.223,2.223v8.27
	c0,1.245-0.979,2.223-2.223,2.223h-0.979v3.867c0,1.778-0.711,1.379-1.645-0.488c0,0-0.889-1.778-1.645-3.379h-9.113
	C81.613,32.882,80.637,31.904,80.637,30.659z"/>
<path fill="#FFFFFF" d="M107.742,37.979h-4.895c-1.254,0-3.074-0.779-3.074-2.642v-12.43c0-0.996,0.953-2.641,3.074-2.641h4.895
	c1.256,0,2.209,0.778,2.209,1.731v0.606c0,0.996-0.953,1.775-2.209,1.775h-2.512c0,0-1.473-0.086-1.473,1.43v6.625
	c0,1.517,1.473,1.43,1.473,1.43h2.512c1.256,0,2.209,0.779,2.209,1.732v0.606C109.951,37.2,108.998,37.979,107.742,37.979
	L107.742,37.979z M115.971,34.038c-0.867,0.909-2.08,1.039-2.814,0.304l-0.348-0.347c-0.953-0.953,0.217-2.078,1.039-2.945
	l-4.979,0.13c-1.258,0.043-2.383-0.779-2.383-1.731v-0.606c0-0.996,1.125-1.818,2.383-1.775l4.979,0.172
	c-0.865-0.865-1.818-2.164-1.125-2.943l0.434-0.477c0.691-0.736,1.947-0.563,2.814,0.346l3.334,3.291
	c0.391,0.477,0.736,1.04,0.736,1.646c0,0.648-0.346,1.256-0.736,1.646L115.971,34.038z"/>
<path fill="#FFFFFF" d="M42.322,35.814V22.399c0-1.247,0.98-2.229,2.228-2.229h13.415c1.248,0,2.229,0.981,2.229,2.229v13.415
	c0,1.247-0.98,2.228-2.229,2.228H44.55C43.302,38.042,42.322,37.062,42.322,35.814L42.322,35.814z"/>
<path fill="#9CB0BA" d="M49.842,29.771c0,0.493,0.135,0.985,0.447,1.299l0.135,0.135l3.807,3.806
	c0.582,0.582,1.388,0.896,2.105,0.179c0.716-0.717,0.446-1.522-0.181-2.104l-3.581-3.583v-5.283c0-0.851-0.359-1.611-1.389-1.611
	c-0.985,0-1.344,0.761-1.344,1.611V29.771z"/>
</svg>
