<?xml version="1.0" encoding="utf-8"?>
<!-- Generator: Adobe Illustrator 15.0.0, SVG Export Plug-In . SVG Version: 6.00 Build 0)  -->
<!DOCTYPE svg PUBLIC "-//W3C//DTD SVG 1.1//EN" "http://www.w3.org/Graphics/SVG/1.1/DTD/svg11.dtd">
<svg version="1.1" id="Layer_1" xmlns="http://www.w3.org/2000/svg" xmlns:xlink="http://www.w3.org/1999/xlink" x="0px" y="0px"
	 width="63.117px" height="10.333px" viewBox="0 0 63.117 10.333" enable-background="new 0 0 63.117 10.333" xml:space="preserve">
<g>
	<path fill="#9CB0BA" d="M2.496-68.4v-3.791c0-1.249,0.98-2.229,2.229-2.229h4.95c1.249,0,2.23,0.981,2.23,2.229v3.791
		c0,1.249-0.981,2.23-2.23,2.23h-4.95C3.477-66.17,2.496-67.151,2.496-68.4L2.496-68.4z M2.496-58.81v-3.792
		c0-1.249,0.98-2.229,2.229-2.229h4.95c1.249,0,2.23,0.98,2.23,2.229v3.792c0,1.248-0.981,2.229-2.23,2.229h-4.95
		C3.477-56.58,2.496-57.562,2.496-58.81L2.496-58.81z M13.245-68.4v-3.791c0-1.249,0.981-2.229,2.23-2.229h4.95
		c1.249,0,2.229,0.981,2.229,2.229v3.791c0,1.249-0.98,2.23-2.229,2.23h-4.95C14.226-66.17,13.245-67.151,13.245-68.4L13.245-68.4z
		 M13.245-58.81v-3.792c0-1.249,0.981-2.229,2.23-2.229h4.95c1.249,0,2.229,0.98,2.229,2.229v3.792c0,1.248-0.98,2.229-2.229,2.229
		h-4.95C14.226-56.58,13.245-57.562,13.245-58.81z"/>
</g>
<path fill="#9CB0BA" d="M63.117-56.562v-15.585c0-1.263,0.785-2.22,1.742-2.22h1.48c1,0,1.784,0.958,1.784,2.22v15.584
	L63.117-56.562L63.117-56.562z M69.386-56.562v-4.92c0-1.262,0.783-2.22,1.785-2.22h1.436c0.959,0,1.74,0.958,1.74,2.22v4.92H69.386
	z M75.611-56.562v-10.274c0-1.219,0.783-2.22,1.785-2.22h1.479c0.959,0,1.741,1,1.741,2.22v10.274H75.611z"/>
<path fill="#9CB0BA" d="M24.102-58.764v-13.398c0-1.247,0.979-2.226,2.226-2.226h13.398c1.246,0,2.225,0.979,2.225,2.226v13.398
	c0,1.247-0.979,2.226-2.225,2.226H26.328C25.082-56.538,24.102-57.517,24.102-58.764z"/>
<path fill="#9CB0BA" d="M81.87-63.91v-8.27c0-1.245,0.978-2.223,2.223-2.223h13.38c1.244,0,2.223,0.979,2.223,2.223v8.27
	c0,1.245-0.979,2.223-2.223,2.223h-0.979v3.867c0,1.778-0.711,1.379-1.645-0.488c0,0-0.89-1.778-1.646-3.379H84.09
	C82.845-61.688,81.87-62.665,81.87-63.91z"/>
<path fill="#9CB0BA" d="M108.974-56.59h-4.895c-1.254,0-3.074-0.779-3.074-2.642v-12.429c0-0.996,0.953-2.641,3.074-2.641h4.895
	c1.256,0,2.209,0.778,2.209,1.731v0.606c0,0.996-0.953,1.775-2.209,1.775h-2.512c0,0-1.473-0.086-1.473,1.43v6.625
	c0,1.517,1.473,1.43,1.473,1.43h2.512c1.256,0,2.209,0.779,2.209,1.732v0.606C111.183-57.369,110.23-56.59,108.974-56.59
	L108.974-56.59z M117.204-60.531c-0.867,0.909-2.08,1.039-2.813,0.304l-0.349-0.347c-0.953-0.953,0.217-2.078,1.039-2.945
	l-4.979,0.13c-1.258,0.043-2.383-0.779-2.383-1.731v-0.608c0-0.996,1.125-1.818,2.383-1.775l4.979,0.172
	c-0.865-0.865-1.818-2.164-1.125-2.943l0.435-0.477c0.69-0.736,1.946-0.563,2.813,0.346l3.334,3.291
	c0.391,0.477,0.735,1.04,0.735,1.646c0,0.648-0.346,1.256-0.735,1.646L117.204-60.531z"/>
<path fill="#006195" d="M43.554-58.755v-13.414c0-1.248,0.98-2.229,2.228-2.229h13.415c1.248,0,2.229,0.981,2.229,2.229v13.415
	c0,1.247-0.98,2.228-2.229,2.228H45.782C44.534-56.527,43.554-57.508,43.554-58.755L43.554-58.755z M51.175-64.816
	c0,0.489,0.134,0.98,0.444,1.292l0.134,0.135l3.79,3.787c0.578,0.58,1.381,0.892,2.094,0.178c0.713-0.712,0.445-1.515-0.178-2.095
	l-3.566-3.565v-5.259c0-0.846-0.355-1.604-1.381-1.604c-0.98,0-1.336,0.758-1.336,1.604L51.175-64.816L51.175-64.816z"/>
<g>
	<path fill="#FFFFFF" d="M2.496-49.293v-3.791c0-1.248,0.98-2.229,2.229-2.229h4.95c1.249,0,2.23,0.979,2.23,2.229v3.791
		c0,1.25-0.981,2.229-2.23,2.229h-4.95C3.477-47.063,2.496-48.043,2.496-49.293L2.496-49.293z M2.496-39.704v-3.791
		c0-1.25,0.98-2.229,2.229-2.229h4.95c1.249,0,2.23,0.979,2.23,2.229v3.791c0,1.248-0.981,2.229-2.23,2.229h-4.95
		C3.477-37.474,2.496-38.456,2.496-39.704L2.496-39.704z M13.245-49.293v-3.791c0-1.248,0.981-2.229,2.23-2.229h4.95
		c1.249,0,2.229,0.979,2.229,2.229v3.791c0,1.25-0.98,2.229-2.229,2.229h-4.95C14.226-47.063,13.245-48.043,13.245-49.293
		L13.245-49.293z M13.245-39.704v-3.791c0-1.25,0.981-2.229,2.23-2.229h4.95c1.249,0,2.229,0.979,2.229,2.229v3.791
		c0,1.248-0.98,2.229-2.229,2.229h-4.95C14.226-37.474,13.245-38.456,13.245-39.704z"/>
</g>
<path fill="#FFFFFF" d="M63.117-37.493v-15.584c0-1.264,0.785-2.221,1.742-2.221h1.48c1,0,1.785,0.957,1.785,2.221v15.584H63.117z
	 M69.386-37.493v-4.92c0-1.262,0.783-2.221,1.785-2.221h1.436c0.959,0,1.74,0.959,1.74,2.221v4.92H69.386z M75.611-37.493v-10.274
	c0-1.22,0.783-2.221,1.785-2.221h1.479c0.959,0,1.741,1.001,1.741,2.221v10.272h-5.006V-37.493z"/>
<path fill="#FFFFFF" d="M24.102-39.694v-13.398c0-1.246,0.979-2.228,2.226-2.228h13.398c1.246,0,2.225,0.979,2.225,2.228v13.397
	c0,1.247-0.979,2.226-2.225,2.226H26.328C25.082-37.469,24.102-38.447,24.102-39.694z"/>
<path fill="#FFFFFF" d="M81.87-44.84v-8.271c0-1.244,0.978-2.224,2.223-2.224h13.38c1.244,0,2.223,0.979,2.223,2.224v8.271
	c0,1.244-0.979,2.223-2.223,2.223h-0.979v3.867c0,1.777-0.711,1.379-1.645-0.488c0,0-0.89-1.778-1.646-3.379H84.09
	C82.845-42.618,81.87-43.596,81.87-44.84z"/>
<path fill="#FFFFFF" d="M108.974-37.521h-4.895c-1.254,0-3.074-0.778-3.074-2.642v-12.43c0-0.996,0.953-2.642,3.074-2.642h4.895
	c1.256,0,2.209,0.778,2.209,1.731v0.605c0,0.996-0.953,1.775-2.209,1.775h-2.512c0,0-1.473-0.086-1.473,1.43v6.625
	c0,1.518,1.473,1.43,1.473,1.43h2.512c1.256,0,2.209,0.779,2.209,1.732v0.605C111.183-38.299,110.23-37.521,108.974-37.521
	L108.974-37.521z M117.204-41.461c-0.867,0.908-2.08,1.039-2.813,0.303l-0.349-0.346c-0.953-0.953,0.217-2.078,1.039-2.945
	l-4.979,0.13c-1.258,0.043-2.383-0.779-2.383-1.731v-0.605c0-0.996,1.125-1.818,2.383-1.775l4.979,0.172
	c-0.865-0.865-1.818-2.164-1.125-2.943l0.435-0.477c0.69-0.736,1.946-0.562,2.813,0.346l3.334,3.291
	c0.391,0.478,0.735,1.041,0.735,1.646c0,0.648-0.346,1.256-0.735,1.646L117.204-41.461z"/>
<path fill="#FFFFFF" d="M43.554-39.686v-13.415c0-1.247,0.98-2.229,2.228-2.229h13.415c1.248,0,2.229,0.981,2.229,2.229v13.415
	c0,1.247-0.98,2.229-2.229,2.229H45.782C44.534-37.458,43.554-38.438,43.554-39.686L43.554-39.686z"/>
<path fill="#9CB0BA" d="M51.074-45.729c0,0.493,0.135,0.984,0.447,1.299l0.135,0.135l3.807,3.807
	c0.582,0.582,1.388,0.896,2.105,0.179c0.716-0.717,0.446-1.522-0.181-2.104l-3.581-3.582v-5.283c0-0.852-0.359-1.611-1.389-1.611
	c-0.985,0-1.344,0.762-1.344,1.611L51.074-45.729L51.074-45.729z"/>
<g>
	<path fill="#005295" d="M13.63,2.722h-2.126V1.323h6.002v1.398h-2.126v6.559h-1.75V2.722z"/>
	<path fill="#005295" d="M18.327,1.221h1.739v1.671h-1.739V1.221z M20.032,9.281h-1.671V3.779h1.671V9.281z"/>
	<path fill="#005295" d="M23.01,9.281h-1.671V0.857l1.785-0.114L23.01,2.21V9.281z"/>
	<path fill="#005295" d="M29.991,7.564c0,1.103-0.58,1.875-2.433,1.875h-1.023c-1.614,0-2.331-0.898-2.331-1.989V5.7
		c0-1.125,0.705-2.103,2.308-2.103h1.205c1.66,0,2.319,1,2.319,2.058v1.353h-4.172v0.216c0,0.512,0.273,0.966,1.114,0.966h0.318
		c0.716,0,1.058-0.193,1.069-0.625H29.991z M27.296,4.847h-0.364c-0.887,0-1.068,0.557-1.068,1v0.057h2.501V5.836
		C28.365,5.393,28.183,4.847,27.296,4.847z"/>
	<path fill="#005295" d="M33.743,1.164h1.637c1.558,0,2.569,0.716,2.569,2.467H36.21c0-0.648-0.364-1.08-1.205-1.08h-0.841
		c-0.898,0-1.193,0.522-1.193,1.193v3.115c0,0.671,0.295,1.194,1.193,1.194h0.841c0.841,0,1.205-0.341,1.205-1.08h1.739
		c0,1.75-1.012,2.467-2.569,2.467h-1.637c-1.478,0-2.512-0.784-2.512-2.376V3.54C31.231,1.949,32.265,1.164,33.743,1.164z"/>
	<path fill="#005295" d="M40.929,9.281h-1.671V0.857l1.785-0.114L40.929,2.21V9.281z"/>
	<path fill="#005295" d="M45.75,9.44h-1.308c-1.841,0-2.319-0.989-2.319-2.069V5.666c0-1.08,0.478-2.069,2.319-2.069h1.308
		c1.841,0,2.319,1,2.319,2.081v1.682C48.068,8.439,47.591,9.44,45.75,9.44z M45.329,4.847h-0.478c-0.841,0-1.068,0.512-1.068,1.023
		v1.296c0,0.511,0.228,1.023,1.068,1.023h0.478c0.841,0,1.069-0.512,1.069-1.023V5.871C46.397,5.359,46.17,4.847,45.329,4.847z"/>
	<path fill="#005295" d="M55.095,7.223c0,1.33-0.693,2.217-2.319,2.217h-1.308c-1.614,0-2.319-0.875-2.319-1.967v-1.83
		c0-1.08,0.705-2.046,2.319-2.046h1.308c1.648,0,2.319,1,2.319,2.274h-1.671c0-0.455-0.171-1.023-1.046-1.023h-0.512
		c-0.841,0-1.057,0.512-1.057,1.023v1.296c0,0.511,0.228,1.023,1.068,1.023h0.478c0.83,0,1.057-0.42,1.069-0.966H55.095z"/>
	<path fill="#005295" d="M57.961,9.281H56.29V0.857l1.785-0.114L57.961,2.21v3.786h1.375l0.932-2.217h1.819l-1.216,2.796
		l1.228,2.706h-1.763L59.359,7.28h-1.398V9.281z"/>
</g>
<path fill="#9CB0BA" d="M0.993,8.385V1.998c0-0.595,0.467-1.062,1.062-1.062h6.388c0.594,0,1.061,0.467,1.061,1.062v6.387
	c0,0.594-0.467,1.062-1.061,1.062H2.054C1.46,9.447,0.993,8.979,0.993,8.385z"/>
<path fill="#9CB0BA" d="M-14.195,7.701V1.314c0-0.595,0.467-1.062,1.062-1.062h6.388c0.594,0,1.061,0.467,1.061,1.062v6.387
	c0,0.594-0.467,1.062-1.061,1.062h-6.388C-13.728,8.763-14.195,8.295-14.195,7.701z"/>
<path fill="#F9F9F9" d="M-10.394,7.616c0,0.416,0.175,0.568,0.437,0.568c0.284,0,0.459-0.153,0.459-0.568V4.689
	c0-0.415-0.175-0.568-0.459-0.568c-0.262,0-0.437,0.153-0.437,0.568V7.616z"/>
<path fill="#F9F9F9" d="M-8.098,7.191c0.294,0.294,0.525,0.278,0.71,0.093c0.201-0.201,0.217-0.433-0.077-0.727l-2.069-2.069
	c-0.293-0.293-0.525-0.278-0.726-0.077c-0.185,0.185-0.201,0.417,0.093,0.71L-8.098,7.191z"/>
<path fill="#F9F9F9" d="M-6.899,4.978c0.416,0,0.568-0.175,0.568-0.437c0-0.284-0.153-0.459-0.568-0.459h-2.927
	c-0.415,0-0.567,0.175-0.567,0.459c0,0.262,0.152,0.437,0.567,0.437H-6.899z"/>
<path fill="#F9F9F9" d="M-10.394,4.491c0,0.416,0.175,0.568,0.437,0.568c0.284,0,0.459-0.153,0.459-0.568V1.564
	c0-0.415-0.175-0.568-0.459-0.568c-0.262,0-0.437,0.153-0.437,0.568V4.491z"/>
<path fill="#F9F9F9" d="M-7.467,2.682c0.294-0.294,0.278-0.525,0.093-0.71C-7.575,1.77-7.806,1.754-8.1,2.048l-2.069,2.069
	c-0.293,0.293-0.278,0.525-0.077,0.726c0.185,0.185,0.417,0.201,0.71-0.093L-7.467,2.682z"/>
<path fill="#F9F9F9" d="M-11.795,1.96c-0.294-0.294-0.525-0.278-0.71-0.093c-0.201,0.201-0.217,0.433,0.077,0.727l2.069,2.069
	c0.293,0.293,0.525,0.278,0.726,0.077c0.185-0.185,0.201-0.417-0.093-0.71L-11.795,1.96z"/>
<path fill="#F9F9F9" d="M-12.993,4.173c-0.416,0-0.568,0.175-0.568,0.437c0,0.284,0.153,0.459,0.568,0.459h2.927
	c0.415,0,0.567-0.175,0.567-0.459c0-0.262-0.152-0.437-0.567-0.437H-12.993z"/>
<path fill="#F9F9F9" d="M-12.426,6.47c-0.294,0.294-0.278,0.525-0.093,0.71c0.201,0.201,0.433,0.217,0.727-0.077l2.069-2.069
	C-9.43,4.74-9.445,4.509-9.646,4.308c-0.185-0.185-0.417-0.201-0.71,0.093L-12.426,6.47z"/>
<g>
	<path opacity="0.5" fill="#F9F9F9" d="M4.832,8.044c0,0.38,0.16,0.52,0.399,0.52c0.26,0,0.42-0.14,0.42-0.52V5.365
		c0-0.38-0.16-0.52-0.42-0.52c-0.24,0-0.399,0.14-0.399,0.52V8.044z"/>
	<path opacity="0.4" fill="#F9F9F9" d="M7.015,7.575C7.284,7.844,7.496,7.83,7.665,7.66c0.184-0.184,0.198-0.396-0.071-0.665
		L5.7,5.101c-0.269-0.269-0.48-0.254-0.665-0.07C4.866,5.2,4.852,5.412,5.12,5.68L7.015,7.575z"/>
	<path opacity="0.3" fill="#F9F9F9" d="M8.031,5.712c0.381,0,0.521-0.16,0.521-0.399c0-0.26-0.14-0.42-0.521-0.42h-2.68
		c-0.38,0-0.52,0.16-0.52,0.42c0,0.239,0.14,0.399,0.52,0.399H8.031z"/>
	<path opacity="0.2" fill="#F9F9F9" d="M7.592,3.527c0.269-0.269,0.254-0.481,0.085-0.65C7.494,2.692,7.282,2.678,7.012,2.947
		L5.118,4.841C4.849,5.11,4.863,5.322,5.047,5.506c0.17,0.17,0.381,0.184,0.65-0.084L7.592,3.527z"/>
	<path opacity="0.8" fill="#F9F9F9" d="M3.549,2.866C3.28,2.597,3.067,2.611,2.898,2.781C2.714,2.965,2.7,3.177,2.969,3.446
		l1.894,1.895c0.269,0.269,0.481,0.254,0.665,0.07c0.169-0.169,0.184-0.381-0.085-0.65L3.549,2.866z"/>
	<path opacity="0.7" fill="#F9F9F9" d="M2.452,4.893c-0.381,0-0.521,0.16-0.521,0.4c0,0.26,0.14,0.42,0.521,0.42h2.68
		c0.38,0,0.52-0.16,0.52-0.42c0-0.24-0.14-0.4-0.52-0.4H2.452z"/>
	<path opacity="0.6" fill="#F9F9F9" d="M2.971,6.995c-0.269,0.269-0.255,0.481-0.085,0.65C3.07,7.83,3.282,7.844,3.551,7.575
		L5.445,5.68C5.714,5.412,5.7,5.2,5.516,5.016c-0.17-0.169-0.382-0.184-0.65,0.085L2.971,6.995z"/>
	<path fill="#F9F9F9" d="M4.832,5.183c0,0.381,0.16,0.521,0.399,0.521c0.26,0,0.42-0.14,0.42-0.521V2.504
		c0-0.38-0.16-0.52-0.42-0.52c-0.24,0-0.399,0.14-0.399,0.52V5.183z"/>
</g>
</svg>
